<svg width="49" height="49" viewBox="0 0 49 49" fill="none" xmlns="http://www.w3.org/2000/svg">
<circle cx="24.5" cy="24.5" r="24.5" fill="url(#paint0_linear_188_3135)"/>
<g clip-path="url(#clip0_188_3135)">
<path d="M24.5038 18.9087C21.4159 18.9087 18.916 21.4113 18.916 24.4965C18.916 27.5844 21.4186 30.0843 24.5038 30.0843C27.5917 30.0843 30.0916 27.5817 30.0916 24.4965C30.0916 21.4086 27.589 18.9087 24.5038 18.9087ZM24.5038 28.1234C22.4994 28.1234 20.8769 26.5001 20.8769 24.4965C20.8769 22.493 22.5003 20.8696 24.5038 20.8696C26.5074 20.8696 28.1307 22.493 28.1307 24.4965C28.1316 26.5001 26.5083 28.1234 24.5038 28.1234Z" fill="white"/>
<path d="M28.9903 13.68C26.9867 13.5865 22.0241 13.5911 20.0187 13.68C18.2566 13.7626 16.7022 14.1881 15.449 15.4413C13.3547 17.5356 13.6224 20.3576 13.6224 24.4963C13.6224 28.7321 13.3865 31.4888 15.449 33.5513C17.5515 35.6528 20.4144 35.3779 24.5041 35.3779C28.6999 35.3779 30.1481 35.3806 31.6317 34.8062C33.6489 34.0231 35.1715 32.2201 35.3203 28.9816C35.4147 26.9771 35.4093 22.0154 35.3203 20.0101C35.1407 16.1871 33.089 13.8687 28.9903 13.68ZM32.1617 32.1657C30.7888 33.5386 28.8841 33.4161 24.4777 33.4161C19.9407 33.4161 18.1213 33.4832 16.7938 32.1521C15.2648 30.6303 15.5416 28.1867 15.5416 24.4818C15.5416 19.4683 15.0271 15.8578 20.0587 15.6001C21.2147 15.5592 21.555 15.5456 24.465 15.5456L24.5059 15.5728C29.3414 15.5728 33.1353 15.0665 33.3631 20.0972C33.4148 21.245 33.4266 21.5898 33.4266 24.4954C33.4257 28.9798 33.511 30.81 32.1617 32.1657Z" fill="white"/>
<path d="M30.3126 19.9938C31.0337 19.9938 31.6184 19.4092 31.6184 18.6881C31.6184 17.9669 31.0337 17.3823 30.3126 17.3823C29.5914 17.3823 29.0068 17.9669 29.0068 18.6881C29.0068 19.4092 29.5914 19.9938 30.3126 19.9938Z" fill="white"/>
</g>
<defs>
<linearGradient id="paint0_linear_188_3135" x1="7.17592" y1="7.17592" x2="41.8241" y2="41.8241" gradientUnits="userSpaceOnUse">
<stop stop-color="#FAE100"/>
<stop offset="0.15" stop-color="#FCB720"/>
<stop offset="0.3" stop-color="#FF7950"/>
<stop offset="0.5" stop-color="#FF1C74"/>
<stop offset="1" stop-color="#6C1CD1"/>
</linearGradient>
<clipPath id="clip0_188_3135">
<rect width="21.7778" height="21.7778" fill="white" transform="translate(13.6113 13.6111)"/>
</clipPath>
</defs>
</svg>
